<svg xmlns="http://www.w3.org/2000/svg" width="430" height="150" viewBox="0 0 430 150" role="img" aria-label="blossy logo"><defs><linearGradient id="warm" x1="0" y1="0" x2="1" y2="1"><stop offset="0" stop-color="#FF9A6B"></stop><stop offset="1" stop-color="#F2497E"></stop></linearGradient></defs><g transform="translate(75 75)" fill="url(#warm)" style="mix-blend-mode:normal"><circle cx="32" cy="0" r="30" opacity="0.6"></circle><circle cx="16" cy="27.7" r="30" opacity="0.6"></circle><circle cx="-16" cy="27.7" r="30" opacity="0.6"></circle><circle cx="-32" cy="0" r="30" opacity="0.6"></circle><circle cx="-16" cy="-27.7" r="30" opacity="0.6"></circle><circle cx="16" cy="-27.7" r="30" opacity="0.6"></circle></g><path d="M172.124 97.74Q168.2575 97.74 165.1495 96.12125Q162.04149999999998 94.5025 160.18225 91.69975Q158.323 88.897 158.175 85.382V72.691Q158.323 69.176 160.21 66.4195Q162.097 63.663000000000004 165.20499999999998 62.090500000000006Q168.313 60.518 172.124 60.518Q177.082 60.518 181.004 62.9785Q184.926 65.439 187.183 69.64775Q189.44 73.8565 189.44 79.1845Q189.44 84.457 187.183 88.6565Q184.926 92.856 181.004 95.298Q177.082 97.74 172.124 97.74ZM152.255 97.0V43.498000000000005H161.986V70.0455L160.3395 78.685L161.8935 87.3985V97.0ZM170.459 88.786Q173.123 88.786 175.158 87.55575Q177.19299999999998 86.3255 178.3585 84.14250000000001Q179.524 81.9595 179.524 79.129Q179.524 76.2985 178.3585 74.1155Q177.19299999999998 71.9325 175.14875 70.70225Q173.1045 69.47200000000001 170.4405 69.47200000000001Q167.7765 69.47200000000001 165.71375 70.70225Q163.651 71.9325 162.5225 74.10625Q161.394 76.28 161.394 79.129Q161.394 81.97800000000001 162.53175 84.161Q163.6695 86.344 165.73225 87.565Q167.795 88.786 170.459 88.786Z M194.167 97.0V43.498000000000005H203.898V97.0Z M227.643 97.777Q222.2595 97.777 217.92125 95.298Q213.583 92.819 211.0485 88.564Q208.514 84.309 208.514 79.055Q208.514 73.801 211.03925 69.62Q213.5645 65.439 217.90275000000003 62.959999999999994Q222.241 60.481 227.6245 60.481Q233.0635 60.481 237.39249999999998 62.932249999999996Q241.7215 65.3835 244.256 69.59225Q246.7905 73.801 246.7905 79.055Q246.7905 84.309 244.26525 88.564Q241.74 92.819 237.411 95.298Q233.082 97.777 227.643 97.777ZM227.6245 88.712Q230.3625 88.712 232.453 87.491Q234.5435 86.27 235.69975 84.07775000000001Q236.856 81.88550000000001 236.856 79.0735Q236.856 76.2615 235.66275000000002 74.12475Q234.4695 71.988 232.416 70.767Q230.3625 69.546 227.6245 69.546Q224.9605 69.546 222.87 70.77625Q220.7795 72.0065 219.614 74.14325Q218.4485 76.28 218.4485 79.092Q218.4485 81.88550000000001 219.614 84.07775000000001Q220.7795 86.27 222.87 87.491Q224.9605 88.712 227.6245 88.712Z M263.6905 97.8325Q260.6195 97.8325 257.71500000000003 97.02775Q254.8105 96.223 252.35925 94.75225Q249.90800000000002 93.2815 248.132 91.228L253.9225 85.382Q255.754 87.4355 258.1775 88.49925Q260.601 89.563 263.561 89.563Q265.929 89.563 267.15925 88.86925Q268.3895 88.1755 268.3895 86.862Q268.3895 85.382 267.08525 84.5865Q265.781 83.791 263.72749999999996 83.20824999999999Q261.674 82.6255 259.3985 81.95025000000001Q257.123 81.275 255.06025 80.1095Q252.9975 78.944 251.7025 76.89975000000001Q250.4075 74.8555 250.4075 71.618Q250.4075 68.19550000000001 252.091 65.68875Q253.7745 63.182 256.86400000000003 61.785250000000005Q259.9535 60.3885 264.19 60.3885Q268.6115 60.3885 272.20975 61.93325Q275.808 63.478 278.139 66.5675L272.33 72.4135Q270.702 70.4525 268.6485 69.55525Q266.595 68.658 264.2825 68.658Q262.0995 68.658 260.96175 69.31475Q259.824 69.9715 259.824 71.174Q259.824 72.4875 261.119 73.22749999999999Q262.414 73.9675 264.4675 74.52250000000001Q266.521 75.0775 268.78725 75.78975Q271.0535 76.50200000000001 273.10699999999997 77.75075000000001Q275.1605 78.9995 276.45550000000003 81.0715Q277.7505 83.1435 277.7505 86.455Q277.7505 91.6905 273.95799999999997 94.7615Q270.1655 97.8325 263.6905 97.8325Z M294.94649999999996 97.8325Q291.8755 97.8325 288.971 97.02775Q286.06649999999996 96.223 283.61524999999995 94.75225Q281.164 93.2815 279.388 91.228L285.1785 85.382Q287.01 87.4355 289.4335 88.49925Q291.85699999999997 89.563 294.81699999999995 89.563Q297.18499999999995 89.563 298.41524999999996 88.86925Q299.64549999999997 88.1755 299.64549999999997 86.862Q299.64549999999997 85.382 298.34124999999995 84.5865Q297.037 83.791 294.98349999999994 83.20824999999999Q292.92999999999995 82.6255 290.6545 81.95025000000001Q288.37899999999996 81.275 286.31624999999997 80.1095Q284.2535 78.944 282.95849999999996 76.89975000000001Q281.6635 74.8555 281.6635 71.618Q281.6635 68.19550000000001 283.347 65.68875Q285.03049999999996 63.182 288.12 61.785250000000005Q291.2095 60.3885 295.44599999999997 60.3885Q299.86749999999995 60.3885 303.46574999999996 61.93325Q307.06399999999996 63.478 309.395 66.5675L303.58599999999996 72.4135Q301.95799999999997 70.4525 299.9045 69.55525Q297.851 68.658 295.5385 68.658Q293.35549999999995 68.658 292.21774999999997 69.31475Q291.08 69.9715 291.08 71.174Q291.08 72.4875 292.375 73.22749999999999Q293.66999999999996 73.9675 295.72349999999994 74.52250000000001Q297.777 75.0775 300.04324999999994 75.78975Q302.30949999999996 76.50200000000001 304.36299999999994 77.75075000000001Q306.4165 78.9995 307.7115 81.0715Q309.00649999999996 83.1435 309.00649999999996 86.455Q309.00649999999996 91.6905 305.21399999999994 94.7615Q301.4215 97.8325 294.94649999999996 97.8325Z M325.12949999999995 97.2775 310.16299999999995 61.258H320.72649999999993L330.60549999999995 88.7675H327.07199999999995L337.35799999999995 61.258H347.95849999999996L332.01149999999996 97.2775ZM315.21349999999995 111.985 326.1284999999999 88.971 332.01149999999996 97.2775 325.53649999999993 111.985Z" fill="#ffffff"></path></svg>