<svg xmlns="http://www.w3.org/2000/svg" width="437" height="150" viewBox="0 0 437 150" role="img" aria-label="blossy.ai logo"><defs><linearGradient id="warm" x1="0" y1="0" x2="1" y2="1"><stop offset="0" stop-color="#FF9A6B"></stop><stop offset="1" stop-color="#F2497E"></stop></linearGradient></defs><g transform="translate(139 0)"><path d="M24.1 97.7L24.1 97.7Q20.3 97.7 17.2 96.1L17.2 96.1Q15.3 95.2 13.9 93.7L13.9 93.7L13.9 97L4.3 97L4.3 43.5L14.0 43.5L14.0 64.4Q15.4 63.0 17.2 62.1L17.2 62.1Q20.3 60.5 24.1 60.5L24.1 60.5Q29.1 60.5 33.0 63.0Q36.9 65.4 39.2 69.6Q41.4 73.8 41.4 79.2L41.4 79.2Q41.4 84.4 39.2 88.6Q36.9 92.9 33.0 95.3Q29.1 97.7 24.1 97.7ZM22.5 88.8L22.5 88.8Q25.2 88.8 27.2 87.6Q29.2 86.3 30.4 84.2Q31.5 82.0 31.5 79.1L31.5 79.1Q31.5 76.3 30.4 74.1Q29.2 71.9 27.2 70.7Q25.1 69.5 22.4 69.5Q19.8 69.5 17.7 70.7Q15.7 71.9 14.5 74.1Q13.4 76.3 13.4 79.1L13.4 79.1Q13.4 82.0 14.5 84.2Q15.7 86.3 17.8 87.6Q19.8 88.8 22.5 88.8ZM57.5 97L47.8 97L47.8 43.5L57.5 43.5L57.5 97ZM82.9 97.7L82.9 97.7Q77.5 97.7 73.1 95.3Q68.8 92.8 66.3 88.5Q63.7 84.3 63.7 79.0L63.7 79.0Q63.7 73.8 66.2 69.6Q68.7 65.4 73.1 62.9Q77.5 60.4 82.8 60.4L82.8 60.4Q88.3 60.4 92.6 62.9Q96.9 65.4 99.5 69.6Q102.0 73.8 102.0 79.0L102.0 79.0Q102.0 84.3 99.5 88.5Q96.9 92.8 92.6 95.3Q88.3 97.7 82.9 97.7ZM82.8 88.7L82.8 88.7Q85.5 88.7 87.7 87.5Q89.8 86.3 90.9 84.1Q92.1 81.9 92.1 79.1L92.1 79.1Q92.1 76.3 90.9 74.1Q89.7 72.0 87.6 70.8Q85.5 69.5 82.8 69.5L82.8 69.5Q80.1 69.5 78.1 70.8Q76.0 72.0 74.8 74.1Q73.6 76.3 73.6 79.1L73.6 79.1Q73.6 81.9 74.8 84.1Q76.0 86.3 78.1 87.5Q80.1 88.7 82.8 88.7ZM120.5 97.8L120.5 97.8Q117.4 97.8 114.5 97Q111.6 96.2 109.1 94.7Q106.7 93.3 104.9 91.2L104.9 91.2L110.7 85.4Q112.6 87.5 115.0 88.5Q117.4 89.5 120.4 89.5L120.4 89.5Q122.8 89.5 124.0 88.9Q125.2 88.2 125.2 86.9L125.2 86.9Q125.2 85.4 123.9 84.6Q122.6 83.8 120.5 83.2Q118.5 82.6 116.2 81.9Q114.0 81.2 111.9 80.1Q109.8 78.9 108.5 76.9Q107.2 74.9 107.2 71.6L107.2 71.6Q107.2 68.2 108.9 65.7Q110.6 63.2 113.7 61.8Q116.8 60.4 121.0 60.4L121.0 60.4Q125.4 60.4 129.0 61.9Q132.6 63.5 135.0 66.6L135.0 66.6L129.1 72.4Q127.5 70.4 125.5 69.5Q123.4 68.7 121.1 68.7L121.1 68.7Q118.9 68.7 117.8 69.3Q116.6 70.0 116.6 71.2L116.6 71.2Q116.6 72.5 117.9 73.2Q119.2 74.0 121.3 74.5Q123.4 75.1 125.6 75.8Q127.9 76.5 129.9 77.8Q131.9 79.0 133.2 81.1Q134.5 83.2 134.5 86.4L134.5 86.4Q134.5 91.7 130.8 94.7Q127.0 97.8 120.5 97.8ZM153.3 97.8L153.3 97.8Q150.3 97.8 147.4 97Q144.4 96.2 142.0 94.7Q139.6 93.3 137.8 91.2L137.8 91.2L143.6 85.4Q145.4 87.5 147.9 88.5Q150.3 89.5 153.3 89.5L153.3 89.5Q155.6 89.5 156.8 88.9Q158.1 88.2 158.1 86.9L158.1 86.9Q158.1 85.4 156.8 84.6Q155.5 83.8 153.4 83.2Q151.3 82.6 149.1 81.9Q146.8 81.2 144.7 80.1Q142.7 78.9 141.4 76.9Q140.1 74.9 140.1 71.6L140.1 71.6Q140.1 68.2 141.7 65.7Q143.4 63.2 146.5 61.8Q149.6 60.4 153.8 60.4L153.8 60.4Q158.3 60.4 161.9 61.9Q165.5 63.5 167.8 66.6L167.8 66.6L162.0 72.4Q160.4 70.4 158.3 69.5Q156.3 68.7 153.9 68.7L153.9 68.7Q151.8 68.7 150.6 69.3Q149.5 70.0 149.5 71.2L149.5 71.2Q149.5 72.5 150.8 73.2Q152.1 74.0 154.1 74.5Q156.2 75.1 158.5 75.8Q160.7 76.5 162.8 77.8Q164.8 79.0 166.1 81.1Q167.4 83.2 167.4 86.4L167.4 86.4Q167.4 91.7 163.6 94.7Q159.8 97.8 153.3 97.8ZM185.5 111.9L175.2 111.9L183.7 93.9L170.2 61.3L180.7 61.3L188.8 84.0L197.4 61.3L207.9 61.3L192.0 97.3L185.5 111.9Z" fill="#241B22"></path><path d="M219.5 97.7L219.5 97.7Q216.8 97.7 215.1 96.0Q213.4 94.2 213.4 91.6L213.4 91.6Q213.4 89.0 215.1 87.2Q216.8 85.5 219.5 85.5L219.5 85.5Q222.1 85.5 223.8 87.2Q225.5 89.0 225.5 91.6L225.5 91.6Q225.5 94.2 223.8 96.0Q222.1 97.7 219.5 97.7ZM248.6 97.7L248.6 97.7Q243.7 97.7 239.8 95.3Q235.8 92.9 233.6 88.6Q231.4 84.4 231.4 79.2L231.4 79.2Q231.4 73.8 233.6 69.6Q235.8 65.4 239.8 63.0Q243.7 60.5 248.6 60.5L248.6 60.5Q252.4 60.5 255.4 62.1L255.4 62.1Q257.4 63.1 258.9 64.7L258.9 64.7L258.9 61.3L268.5 61.3L268.5 97L258.9 97L258.9 93.5Q257.4 95.1 255.4 96.1L255.4 96.1Q252.4 97.7 248.6 97.7ZM250.3 88.8L250.3 88.8Q254.4 88.8 256.9 86.1Q259.4 83.4 259.4 79.1L259.4 79.1Q259.4 76.3 258.3 74.1Q257.1 71.9 255.1 70.7Q253.1 69.5 250.3 69.5L250.3 69.5Q247.7 69.5 245.6 70.7Q243.6 71.9 242.5 74.1Q241.3 76.3 241.3 79.1L241.3 79.1Q241.3 82.0 242.5 84.2Q243.6 86.3 245.6 87.6Q247.7 88.8 250.3 88.8ZM286.9 97L277.1 97L277.1 61.3L286.9 61.3L286.9 97ZM282.0 55.5L282.0 55.5Q279.6 55.5 278.1 53.9Q276.5 52.3 276.5 49.9L276.5 49.9Q276.5 47.6 278.1 46.0Q279.6 44.4 282.0 44.4L282.0 44.4Q284.5 44.4 286.0 46.0Q287.5 47.6 287.5 49.9L287.5 49.9Q287.5 52.3 286.0 53.9Q284.5 55.5 282.0 55.5Z" fill="#F2497E"></path></g><g transform="translate(66 75)" fill="url(#warm)" style="mix-blend-mode:multiply"><circle cx="32" cy="0" r="30" opacity="0.6"></circle><circle cx="16" cy="27.7" r="30" opacity="0.6"></circle><circle cx="-16" cy="27.7" r="30" opacity="0.6"></circle><circle cx="-32" cy="0" r="30" opacity="0.6"></circle><circle cx="-16" cy="-27.7" r="30" opacity="0.6"></circle><circle cx="16" cy="-27.7" r="30" opacity="0.6"></circle></g></svg>